<?xml version="1.0" standalone="no"?>
<!DOCTYPE svg PUBLIC "-//W3C//DTD SVG 20010904//EN"
 "http://www.w3.org/TR/2001/REC-SVG-20010904/DTD/svg10.dtd">
<svg version="1.0" xmlns="http://www.w3.org/2000/svg"
 width="512.000000pt" height="512.000000pt" viewBox="0 0 512.000000 512.000000"
 preserveAspectRatio="xMidYMid meet">

<g transform="translate(0.000000,512.000000) scale(0.100000,-0.100000)"
fill="#000000" stroke="none">
<path d="M1470 5111 c-108 -35 -177 -121 -187 -232 -5 -56 -1 -69 216 -611
121 -304 221 -558 221 -565 0 -6 -31 -36 -70 -68 -149 -122 -405 -408 -612
-683 -231 -308 -414 -599 -549 -876 -99 -205 -148 -329 -192 -496 -29 -109
-31 -126 -31 -305 -1 -163 2 -202 21 -275 66 -262 176 -456 358 -635 174 -172
393 -287 648 -342 76 -17 173 -18 1267 -18 1094 0 1191 1 1267 18 256 55 474
170 647 341 184 181 292 374 359 636 19 73 22 112 21 275 0 179 -2 196 -31
305 -84 317 -274 698 -545 1097 -264 388 -595 782 -808 958 -38 33 -70 64 -70
69 0 6 100 260 221 564 213 533 221 556 217 610 -11 144 -111 237 -253 237
-62 0 -83 -6 -180 -49 -239 -105 -508 -177 -729 -195 -280 -22 -616 46 -961
194 -113 48 -193 63 -245 46z m257 -327 c205 -81 442 -141 653 -165 126 -14
356 -7 485 16 202 36 446 109 631 189 43 19 80 34 81 32 1 -1 -88 -230 -200
-509 l-202 -507 -615 0 -615 0 -200 501 c-110 275 -202 505 -204 510 -1 6 14
3 35 -6 22 -9 89 -37 151 -61z m1441 -1241 c263 -161 744 -737 1077 -1288 153
-255 300 -590 339 -780 63 -304 -14 -604 -220 -856 -119 -146 -330 -279 -524
-331 l-85 -23 -1195 0 -1195 0 -85 23 c-252 68 -472 231 -615 456 -92 145
-155 360 -155 532 0 282 211 772 546 1262 311 456 687 877 896 1005 l62 37
546 0 546 0 62 -37z"/>
<path d="M2493 3186 c-26 -22 -28 -31 -31 -109 l-4 -84 -58 -6 c-177 -19 -360
-138 -438 -286 -78 -146 -83 -352 -12 -491 69 -134 214 -235 438 -301 l72 -22
0 -378 0 -377 -61 14 c-93 22 -163 59 -213 115 -55 62 -85 137 -92 237 -10
134 -37 179 -111 189 -49 6 -103 -28 -120 -77 -25 -70 8 -292 58 -392 80 -161
238 -264 457 -301 l77 -13 5 -105 c7 -141 25 -169 109 -169 31 0 49 7 73 29
32 28 32 30 36 134 l4 105 92 21 c302 70 496 290 496 563 0 242 -106 388 -361
499 -48 21 -120 48 -158 60 l-71 21 0 350 0 351 41 -7 c135 -22 239 -141 239
-273 0 -83 54 -143 127 -143 38 0 51 6 78 33 42 42 51 89 36 186 -31 205 -186
365 -402 416 -35 8 -76 15 -91 15 -28 0 -28 1 -28 65 0 74 -18 128 -48 144
-38 20 -108 13 -139 -13z m-33 -741 l0 -324 -38 13 c-68 24 -142 66 -183 103
-60 54 -82 104 -87 199 -4 72 -1 89 21 135 49 107 117 154 285 198 1 1 2 -145
2 -324z m340 -662 c130 -52 176 -96 205 -198 25 -84 16 -187 -21 -256 -46 -84
-134 -147 -251 -182 l-53 -16 0 346 0 345 28 -7 c15 -3 56 -18 92 -32z"/>
</g>
</svg>
